<?xml version="1.0" standalone="no"?>
<!DOCTYPE svg PUBLIC "-//W3C//DTD SVG 20010904//EN"
 "http://www.w3.org/TR/2001/REC-SVG-20010904/DTD/svg10.dtd">
<svg version="1.0" xmlns="http://www.w3.org/2000/svg"
 width="1611.000000pt" height="554.000000pt" viewBox="0 0 1611.000000 554.000000"
 preserveAspectRatio="xMidYMid meet">
<metadata>
Created by potrace 1.16, written by Peter Selinger 2001-2019
</metadata>
<g transform="translate(0.000000,554.000000) scale(0.100000,-0.100000)"
fill="#000000" stroke="none">
<path d="M2550 5522 c-36 -1 -72 -5 -80 -9 -8 -3 -35 -7 -60 -9 -25 -1 -81
-10 -125 -19 -44 -9 -98 -18 -119 -20 -22 -3 -43 -10 -47 -16 -4 -6 -11 -9
-16 -6 -13 8 -122 -21 -151 -40 -13 -8 -26 -12 -29 -10 -2 3 -18 1 -34 -5 -17
-6 -28 -12 -26 -14 2 -3 16 0 31 5 17 7 26 7 26 1 0 -9 -12 -12 -66 -15 -32
-2 -104 -27 -104 -36 0 -5 -8 -5 -17 -2 -16 6 -17 5 -3 -12 14 -17 14 -18 -4
-8 -13 7 -29 8 -48 1 -23 -8 -26 -13 -17 -24 9 -12 8 -18 -7 -29 -29 -22 -42
-17 -14 6 l25 20 -30 -3 c-30 -3 -41 -26 -20 -40 5 -4 0 -6 -12 -5 -17 1 -19
4 -11 14 8 10 6 13 -6 13 -9 0 -16 -5 -16 -11 0 -5 -4 -7 -10 -4 -5 3 -10 1
-10 -5 0 -7 -7 -10 -14 -7 -11 4 -13 1 -9 -11 6 -14 4 -15 -8 -5 -12 10 -19 8
-33 -8 -9 -12 -24 -18 -32 -15 -9 3 -12 1 -9 -4 3 -6 0 -10 -7 -10 -9 -1 -7
-5 4 -14 10 -7 14 -16 10 -21 -4 -4 46 19 110 51 65 33 118 64 118 70 0 12 48
29 57 21 2 -3 -8 -8 -23 -11 -14 -4 -24 -9 -21 -12 8 -9 98 36 92 45 -3 5 5 7
17 4 16 -3 19 -2 10 4 -9 7 -6 13 14 22 23 10 26 10 16 -2 -10 -12 -8 -14 10
-12 38 4 39 5 34 14 -4 5 4 7 16 3 14 -3 19 -1 14 6 -4 7 -2 10 7 6 7 -2 34 4
59 15 26 11 48 17 51 15 3 -3 31 3 63 12 33 10 61 18 64 19 70 13 81 18 77 29
-4 9 2 11 21 8 24 -5 25 -6 7 -13 -23 -9 57 0 95 11 l25 8 -25 11 -25 11 27
-5 c15 -3 54 -7 85 -10 57 -4 58 -4 28 11 l-30 15 30 -8 c17 -4 53 -7 80 -7
28 1 111 2 185 4 156 2 287 -4 313 -15 9 -4 28 -4 41 -1 14 3 28 1 31 -5 4 -5
17 -9 28 -8 12 0 27 0 32 -1 6 -1 27 -1 49 0 25 1 36 -2 32 -9 -7 -11 22 -16
72 -13 12 0 20 -4 16 -9 -3 -5 -2 -9 3 -8 4 1 28 1 53 0 35 -1 42 -4 30 -12
-12 -8 -9 -9 13 -5 15 4 27 2 27 -4 0 -5 9 -10 21 -10 12 0 17 4 13 11 -4 8 0
8 15 0 11 -7 21 -16 21 -20 0 -5 10 -7 22 -3 16 4 19 2 13 -8 -5 -8 -4 -11 2
-7 5 3 23 -1 39 -10 16 -8 41 -15 57 -15 15 0 25 -3 22 -8 -3 -4 2 -11 11 -14
24 -9 31 -7 14 4 -10 7 -11 10 -2 10 7 0 15 -7 18 -15 4 -8 10 -13 14 -10 5 3
11 1 15 -4 4 -7 15 -7 30 -1 14 5 24 6 24 2 -4 -22 3 -32 21 -32 11 0 20 -4
20 -10 0 -5 12 -13 28 -16 15 -4 42 -15 59 -26 18 -11 38 -16 44 -12 7 4 9 3
6 -3 -8 -12 102 -69 123 -64 8 1 12 0 8 -5 -10 -9 29 -37 41 -29 5 3 13 0 17
-6 5 -8 3 -9 -6 -4 -9 5 -11 4 -6 -3 5 -9 13 -9 26 -2 13 7 21 7 25 0 4 -6 11
-8 16 -5 5 4 17 1 26 -5 16 -9 15 -10 -4 -5 -16 4 -23 2 -23 -7 0 -10 -3 -9
-11 2 -9 13 -10 13 -6 0 2 -9 13 -14 25 -12 11 2 23 -2 27 -7 4 -7 0 -8 -11
-4 -12 4 -15 3 -10 -5 4 -7 12 -12 17 -12 6 0 17 -7 25 -15 8 -8 21 -12 29 -8
11 4 14 0 9 -13 -6 -16 -5 -17 7 -6 18 17 34 15 20 -2 -9 -11 -6 -18 18 -35
16 -12 31 -21 34 -21 3 0 19 -13 37 -30 17 -16 37 -28 43 -27 6 1 11 -5 12
-13 0 -8 5 -15 10 -15 6 0 34 -25 63 -55 30 -30 51 -49 47 -43 -4 9 -1 11 10
7 9 -4 14 -9 11 -12 -6 -6 26 -44 126 -150 53 -57 72 -71 82 -63 7 6 16 7 21
3 4 -4 5 0 3 8 -3 8 -11 14 -17 12 -6 -1 -10 1 -10 5 5 30 -2 35 -20 19 -13
-12 -21 -14 -26 -6 -4 6 -4 14 -1 17 3 4 6 1 6 -6 0 -7 5 -9 10 -6 15 10 12
35 -4 29 -8 -3 -17 0 -22 7 -5 8 -3 10 5 4 10 -6 11 -3 2 14 -7 11 -17 20 -23
18 -7 -1 -12 3 -13 8 0 6 -17 31 -38 55 -37 43 -39 44 -53 26 -17 -23 -19 -13
-3 16 10 18 9 20 -5 15 -9 -4 -15 -1 -13 6 1 7 -4 11 -11 9 -6 -1 -11 3 -10 9
2 6 -20 31 -48 54 -37 30 -59 42 -78 40 -14 -2 -24 1 -20 6 3 5 9 7 14 4 5 -3
12 0 16 7 4 7 4 10 -1 6 -4 -4 -16 4 -27 17 -11 14 -29 30 -41 37 -21 11 -21
10 -4 -9 24 -28 21 -38 -5 -14 -11 11 -25 18 -29 15 -4 -2 -10 0 -14 6 -4 6
-11 8 -16 5 -5 -4 -9 -1 -9 4 0 6 7 11 15 11 8 0 15 -5 15 -11 0 -5 5 -7 11
-3 14 9 -6 28 -104 98 -43 30 -84 53 -91 50 -8 -3 -17 0 -22 7 -5 8 -3 10 6 4
9 -5 11 -4 6 3 -5 8 -13 9 -26 2 -13 -7 -21 -5 -31 7 -12 14 -12 16 0 9 9 -6
12 -5 10 3 -3 7 -7 11 -10 9 -3 -2 -13 5 -23 15 -10 9 -24 17 -32 17 -8 0 -14
5 -14 12 0 6 -3 8 -7 4 -5 -4 0 -13 10 -21 16 -11 15 -12 -8 -12 -14 0 -28 3
-31 8 -3 5 2 6 12 2 29 -11 -3 35 -36 52 -27 14 -29 14 -23 -2 4 -10 -7 -3
-24 15 -17 17 -36 32 -42 32 -19 0 -26 2 -46 13 -11 6 -26 10 -34 8 -7 -1 -11
1 -8 6 3 4 -18 18 -47 30 -33 15 -44 17 -31 7 19 -16 19 -16 -5 -9 -61 17
-109 38 -107 49 1 6 -6 10 -15 10 -10 -1 -18 3 -18 8 0 5 -6 8 -12 5 -7 -2
-31 4 -52 14 -30 13 -43 15 -57 6 -13 -8 -24 -8 -41 1 -21 10 -20 10 12 6 30
-4 32 -3 12 6 -13 5 -33 12 -45 14 -12 2 -29 7 -38 11 -10 3 -20 2 -24 -4 -3
-6 -12 -11 -18 -11 -7 0 -6 4 3 10 12 8 12 10 -3 16 -9 3 -29 3 -45 0 -21 -5
-24 -4 -12 5 12 9 11 10 -6 6 -12 -2 -29 0 -38 5 -9 5 -44 11 -78 13 -35 3
-81 8 -103 11 -79 13 -394 22 -535 16z"/>
<path d="M2610 5360 c0 -5 -33 -8 -72 -8 -131 1 -164 -1 -148 -12 11 -7 5 -8
-19 -3 -26 5 -32 3 -26 -7 6 -9 4 -10 -10 -3 -18 11 -177 -13 -183 -27 -2 -4
-12 -6 -23 -3 -11 3 -28 -2 -39 -12 -11 -10 -23 -15 -27 -12 -3 4 0 7 7 7 7 0
11 3 8 6 -3 3 -21 -1 -39 -9 -19 -7 -41 -12 -49 -9 -13 5 -13 3 -1 -12 13 -15
12 -16 -13 -6 -15 5 -25 6 -21 1 3 -5 -7 -10 -22 -10 -42 0 -118 -26 -118 -41
0 -7 -9 -16 -20 -21 -33 -13 -41 -9 -15 7 14 9 17 13 7 10 -11 -4 -30 -9 -44
-12 -18 -5 -21 -9 -11 -15 9 -6 5 -9 -14 -10 -16 -1 -32 -3 -38 -4 -5 -1 -14
-3 -20 -4 -5 0 -10 -7 -10 -15 0 -8 -5 -18 -12 -22 -8 -5 -9 -2 -5 9 3 10 3
17 -1 17 -10 -1 -42 -26 -42 -33 0 -4 8 -4 18 -1 14 5 14 4 3 -4 -8 -6 -22 -7
-30 -3 -20 11 -43 3 -34 -12 4 -6 0 -8 -10 -4 -10 4 -35 -7 -64 -27 -27 -18
-58 -36 -71 -40 -12 -4 -22 -12 -22 -17 0 -5 -5 -8 -12 -6 -7 1 -12 -9 -13
-22 0 -13 -7 -26 -15 -28 -9 -3 -11 -1 -5 4 12 10 18 33 7 33 -4 0 -16 -8 -27
-16 -20 -15 -20 -15 0 -30 11 -8 25 -12 33 -9 7 3 10 0 7 -6 -4 -5 -16 -7 -27
-3 -12 3 -18 2 -15 -3 7 -11 -43 -10 -60 0 -5 3 -23 -7 -38 -23 -16 -17 -35
-30 -42 -30 -7 0 -18 -9 -25 -20 -7 -11 -17 -20 -21 -20 -14 0 -102 -82 -99
-92 1 -5 -1 -7 -6 -4 -5 3 -29 -15 -53 -40 l-44 -46 35 14 c22 9 35 21 35 33
0 10 7 20 15 22 10 3 11 2 4 -4 -6 -4 -11 -16 -11 -25 0 -14 6 -16 36 -11 20
4 54 7 75 6 27 -1 35 2 25 8 -10 6 -3 9 21 9 28 0 32 -3 20 -11 -12 -9 -10
-10 9 -6 12 3 56 -1 95 -8 40 -8 83 -11 96 -8 15 4 21 2 17 -4 -8 -12 37 -27
69 -24 12 1 28 -4 35 -11 33 -31 149 -72 133 -47 -4 8 -3 9 5 5 6 -4 9 -12 6
-17 -4 -5 -1 -9 5 -9 6 0 8 -5 4 -12 -6 -10 -5 -10 7 -1 10 8 19 9 29 1 12 -8
12 -9 -2 -4 -27 8 -21 -7 7 -21 14 -6 23 -7 19 -2 -3 5 -1 9 4 9 14 0 33 -26
25 -33 -3 -4 -2 -7 4 -7 5 0 41 -23 78 -51 37 -29 65 -46 60 -39 -6 9 -3 10
14 1 11 -7 21 -14 21 -17 0 -3 -4 -2 -10 1 -5 3 -10 3 -9 -2 1 -9 136 -125
153 -132 6 -2 4 4 -4 15 -14 18 -14 18 4 4 11 -8 21 -14 23 -12 3 2 8 1 11 -3
4 -4 1 -5 -7 -3 -7 2 -16 -3 -19 -11 -3 -8 0 -11 7 -7 6 4 11 2 11 -4 0 -12
29 -45 39 -45 3 0 5 -4 3 -9 -2 -5 4 -6 13 -2 9 3 14 2 11 -3 -8 -12 33 -63
45 -56 5 4 6 -1 3 -9 -4 -11 3 -19 21 -26 14 -5 23 -14 20 -20 -3 -5 1 -10 9
-10 9 0 16 -6 16 -14 0 -8 7 -16 15 -20 8 -3 15 -9 14 -13 -3 -19 2 -25 14
-15 9 8 12 4 14 -16 1 -18 16 -40 45 -66 23 -22 36 -35 28 -31 -13 8 -13 6 -1
-8 7 -9 18 -14 24 -10 5 3 7 2 4 -4 -4 -6 1 -19 9 -29 15 -19 15 -19 10 0 -6
16 -4 17 9 6 11 -9 13 -16 6 -23 -7 -7 1 -24 25 -51 55 -65 59 -70 56 -80 -2
-5 5 -3 14 5 16 12 17 12 11 -5 -9 -24 29 -87 47 -80 8 3 17 0 22 -7 4 -7 3
-10 -4 -5 -6 3 -13 2 -17 -4 -3 -5 -2 -10 2 -10 5 0 13 -8 18 -18 17 -32 77
-122 81 -122 2 0 1 6 -2 14 -3 8 -1 16 4 20 5 3 8 -8 7 -24 -2 -33 21 -74 36
-65 5 3 6 -2 2 -11 -4 -11 -2 -15 4 -11 8 5 31 -26 30 -43 0 -9 96 -155 106
-162 6 -4 16 -4 22 0 5 3 4 -2 -4 -12 -11 -13 -11 -16 -1 -14 7 2 15 -3 18
-11 3 -9 0 -11 -8 -6 -9 5 -11 4 -6 -4 4 -6 11 -9 16 -6 4 3 11 -2 14 -11 4
-10 2 -13 -7 -8 -6 5 1 -10 18 -32 16 -21 32 -40 37 -42 4 -2 5 -9 2 -17 -3
-7 0 -16 7 -21 7 -4 10 -3 6 3 -3 5 0 10 8 10 11 0 12 -4 4 -13 -13 -16 18
-67 34 -57 6 3 7 1 3 -5 -8 -14 37 -95 47 -85 4 3 7 -3 7 -14 0 -11 7 -26 15
-33 9 -7 13 -15 10 -18 -7 -7 16 -33 25 -27 4 3 10 -9 13 -25 4 -16 22 -53 42
-81 19 -28 35 -56 35 -61 0 -5 5 -6 12 -2 8 5 9 2 5 -9 -3 -10 -2 -17 3 -17 6
0 10 -6 10 -14 0 -8 5 -18 12 -22 6 -4 8 -3 5 3 -3 5 -1 10 6 10 7 0 13 -8 13
-18 0 -10 -5 -15 -11 -12 -5 4 -3 -2 6 -13 9 -10 19 -27 22 -37 4 -11 12 -15
19 -11 7 5 9 2 5 -9 -3 -8 1 -21 9 -27 8 -7 14 -18 14 -26 0 -7 4 -15 9 -18 5
-4 7 4 5 16 -4 23 -4 23 6 0 5 -13 8 -27 5 -32 -3 -4 1 -13 9 -19 8 -7 16 -8
18 -4 3 4 3 2 1 -6 -5 -18 25 -63 37 -56 6 3 7 -1 3 -11 -5 -14 -3 -15 18 -4
23 13 23 12 7 -7 -17 -18 -16 -21 10 -54 16 -18 38 -51 51 -71 12 -21 25 -38
28 -38 3 0 -2 11 -11 25 -9 14 -13 25 -8 25 11 0 34 -49 27 -60 -3 -4 3 -14
12 -21 14 -12 16 -12 8 0 -9 16 8 8 38 -17 13 -12 17 -12 17 -2 0 7 3 11 6 8
3 -4 1 -15 -4 -25 -13 -24 -5 -41 47 -99 24 -27 41 -43 37 -36 -4 6 -5 12 -1
12 3 0 9 -11 14 -23 15 -39 136 -139 171 -141 27 -1 38 -13 23 -26 -4 -3 -3 1
1 8 4 6 2 12 -4 12 -29 0 2 -24 60 -46 36 -14 74 -30 85 -35 50 -23 107 -38
122 -32 10 4 14 2 10 -4 -3 -5 -1 -10 6 -10 7 -1 38 -5 70 -10 65 -11 249 -7
257 6 3 5 21 18 41 29 27 15 36 16 36 6 0 -7 -3 -12 -6 -10 -8 5 -55 -13 -49
-19 9 -9 78 16 72 27 -4 7 1 8 16 3 15 -5 20 -4 16 4 -5 7 2 11 16 11 25 0
108 48 108 63 0 5 -16 0 -35 -12 -19 -11 -37 -16 -39 -12 -3 4 11 15 30 25 30
14 39 14 52 4 13 -11 15 -10 9 4 -4 12 -2 15 7 12 14 -5 39 13 115 84 29 28
41 45 33 49 -7 2 -17 14 -23 26 -11 21 -11 21 11 -1 17 -18 25 -21 36 -11 7 6
11 16 7 22 -3 5 -1 7 4 4 13 -8 37 18 29 31 -3 6 2 16 12 23 15 13 16 12 3 -3
-7 -10 -11 -18 -8 -18 12 0 78 112 84 141 3 16 10 32 16 36 6 4 7 1 2 -8 -6
-11 -5 -12 5 -2 11 10 11 15 -1 29 -8 10 -9 15 -4 12 18 -11 38 8 38 36 0 14
3 23 7 21 10 -6 20 20 20 51 0 14 4 22 10 19 6 -4 7 1 3 11 -4 10 -2 15 4 11
5 -3 10 -1 11 6 1 14 31 105 43 129 5 10 9 27 9 37 0 11 5 23 11 26 6 4 8 14
5 22 -3 8 1 27 9 43 17 33 20 54 5 45 -6 -3 -7 1 -4 9 3 9 10 13 15 10 5 -3
10 5 10 18 1 13 2 30 3 38 1 8 5 21 9 28 5 6 5 17 1 23 -3 6 -1 22 6 35 11 19
11 49 1 151 -7 71 -15 159 -17 197 -3 40 -12 75 -20 83 -8 8 -14 20 -14 26 0
7 4 6 10 -3 13 -20 2 52 -16 105 -8 22 -14 49 -14 61 0 11 -3 24 -7 28 -4 3
-8 15 -10 24 -5 38 -32 130 -58 202 -15 41 -29 83 -32 93 -3 9 -9 17 -14 17
-5 0 -5 7 -2 17 4 11 3 14 -5 9 -8 -5 -10 -1 -5 10 5 13 3 16 -10 11 -12 -4
-15 0 -12 21 3 28 -19 81 -39 94 -6 4 -8 8 -3 8 4 0 0 14 -9 31 -13 25 -18 29
-26 18 -7 -10 -8 -5 -5 16 5 27 4 28 -9 10 -17 -22 -19 -12 -3 17 8 16 8 19
-1 13 -8 -5 -11 -3 -8 6 7 18 -10 51 -22 44 -6 -4 -7 1 -3 11 5 13 3 15 -7 9
-8 -5 -11 -4 -6 3 8 13 -28 75 -37 65 -4 -3 -2 -12 4 -20 16 -18 1 -17 -17 2
-9 8 -11 15 -5 15 16 0 13 36 -4 50 -8 7 -15 18 -15 26 0 7 -9 19 -20 27 -11
8 -17 17 -13 20 3 4 1 7 -5 7 -7 0 -12 6 -12 14 0 8 -5 18 -12 22 -7 4 -8 3
-4 -4 4 -7 4 -12 1 -12 -3 0 -11 13 -16 29 -8 22 -15 28 -27 24 -15 -6 -16 -5
-2 12 14 17 13 18 -2 12 -11 -4 -15 -2 -12 7 3 7 -2 19 -11 26 -13 11 -14 10
-8 -6 6 -16 5 -17 -9 -4 -8 8 -14 20 -11 26 6 16 -47 75 -60 67 -6 -4 -8 0 -4
10 6 17 -15 41 -27 30 -4 -4 -4 1 0 11 5 14 3 17 -7 14 -8 -3 -14 -17 -14 -31
1 -15 -3 -27 -7 -27 -4 0 -8 12 -8 26 0 16 -4 23 -12 18 -7 -4 -8 -3 -4 5 4 6
11 9 16 6 5 -3 11 -1 15 4 9 15 -72 94 -86 85 -7 -4 -9 -3 -5 4 7 11 -91 112
-109 112 -5 -1 0 -9 13 -19 30 -26 28 -36 -3 -14 -16 12 -22 24 -18 37 4 14 1
18 -10 13 -12 -4 -14 -2 -10 10 5 13 2 15 -11 10 -9 -4 -15 -3 -12 2 3 4 -12
22 -34 40 -40 32 -56 39 -44 19 4 -7 3 -8 -5 -4 -6 4 -9 11 -6 15 4 8 -76 71
-92 71 -4 0 -14 9 -21 21 -12 19 -15 19 -30 6 -9 -8 -30 -17 -45 -21 -24 -6
-26 -5 -16 7 8 8 23 12 34 10 20 -4 20 -4 1 11 -11 9 -15 16 -10 16 6 0 16 -6
23 -12 10 -11 11 -10 6 5 -4 9 -11 17 -16 17 -6 0 -20 9 -32 20 -12 12 -32 23
-44 26 -13 4 -23 10 -23 15 0 6 -9 5 -21 -1 -11 -7 -23 -9 -27 -6 -10 11 -11
37 -1 30 5 -3 7 -10 4 -15 -4 -5 -2 -9 4 -9 5 0 12 4 15 9 5 8 -64 48 -73 42
-2 -2 -7 1 -10 6 -9 13 -64 37 -80 34 -7 -1 -10 2 -7 7 7 12 -62 44 -76 36 -7
-4 -8 -2 -4 4 4 7 2 13 -3 13 -19 2 -24 5 -86 33 -33 16 -73 29 -88 29 -15 0
-23 3 -17 7 7 5 3 9 -10 13 -13 3 -33 -1 -46 -9 -24 -16 -78 -12 -89 7 -4 5 5
5 20 -1 15 -6 34 -10 43 -10 15 0 15 2 2 11 -12 8 -9 9 10 5 15 -4 10 2 -15
14 -22 11 -46 17 -53 15 -7 -3 -10 0 -7 5 3 6 -2 10 -12 11 -30 1 -67 9 -88
18 -32 14 -177 32 -204 24 -14 -3 -22 -2 -19 3 7 10 -34 12 -314 18 -109 2
-198 0 -198 -4z m1726 -873 c4 -4 -5 -18 -19 -31 -15 -14 -27 -23 -27 -20 0 3
-17 -11 -37 -30 -21 -19 -42 -34 -46 -33 -5 1 -13 -6 -18 -15 -6 -10 -15 -18
-22 -18 -20 -1 -70 -47 -63 -59 5 -7 1 -9 -8 -5 -9 3 -16 1 -16 -5 0 -6 -6
-11 -13 -11 -8 0 -22 -8 -31 -19 -16 -17 -16 -20 -1 -35 9 -9 12 -16 6 -16 -5
0 -17 7 -25 16 -9 8 -16 12 -16 7 0 -4 0 -542 0 -1195 0 -948 -2 -1188 -12
-1188 -7 0 -30 14 -51 30 -22 16 -46 26 -55 23 -12 -3 -13 -2 -5 4 10 7 3 18
-24 44 -20 19 -33 29 -30 23 5 -9 -24 -11 -43 -4 -3 1 -8 2 -11 2 -3 -1 -6 5
-6 13 0 8 5 11 11 7 6 -3 18 -7 26 -9 13 -1 12 0 -1 10 -9 7 -14 18 -11 26 2
8 1 11 -4 8 -5 -2 -15 1 -22 9 -7 8 -10 14 -6 14 3 0 1 7 -6 15 -11 13 -15 13
-22 3 -7 -10 -8 -9 -6 3 4 19 -82 150 -94 143 -4 -3 -5 3 -1 12 4 11 2 15 -4
11 -6 -4 -14 4 -17 18 -4 14 -11 25 -16 25 -6 0 -10 7 -10 16 0 8 -5 12 -11 9
-6 -4 -9 -1 -7 8 2 8 -6 23 -17 33 -12 11 -14 15 -6 9 10 -6 7 3 -7 25 -13 19
-28 47 -34 63 -5 15 -14 27 -19 27 -12 0 -11 -17 1 -25 6 -3 10 -11 10 -18 0
-6 -7 -2 -16 9 -15 19 -15 18 -11 -3 3 -13 1 -23 -4 -23 -12 0 -11 27 2 52 9
16 5 32 -19 81 l-30 62 -4 808 c-2 658 -5 806 -16 802 -7 -3 -11 -1 -8 4 5 7
-20 33 -88 91 -16 14 -26 19 -22 13 5 -9 2 -11 -10 -6 -13 5 -16 3 -11 -10 4
-11 2 -14 -9 -10 -18 7 -18 13 3 28 15 11 15 15 4 29 -8 9 -23 14 -37 12 -14
-3 -22 -1 -19 5 4 5 11 7 16 4 25 -16 3 6 -61 60 -38 33 -70 63 -70 67 0 4 15
8 33 10 65 6 1217 2 1223 -5z"/>
<path d="M1347 5136 c-37 -24 -63 -46 -59 -50 4 -5 0 -7 -8 -5 -18 4 -125 -64
-139 -88 -6 -10 -11 -14 -11 -9 0 5 -6 3 -14 -3 -8 -7 -12 -21 -9 -31 3 -11 0
-20 -6 -20 -5 0 -8 7 -5 15 9 23 -4 18 -47 -16 -22 -17 -36 -35 -33 -40 3 -5
2 -8 -3 -7 -14 5 -113 -74 -113 -90 0 -7 -4 -11 -9 -8 -13 8 -73 -63 -65 -76
5 -7 2 -9 -8 -5 -17 6 -72 -46 -61 -57 4 -3 0 -6 -8 -6 -19 0 -62 -57 -54 -70
4 -6 2 -9 -3 -8 -5 2 -33 -21 -61 -51 -36 -38 -51 -61 -47 -73 4 -17 2 -17
-12 -6 -9 7 -14 9 -10 4 4 -5 1 -15 -7 -23 -8 -8 -15 -20 -15 -26 0 -7 7 -3
15 7 8 11 15 15 15 10 0 -18 -22 -33 -39 -26 -14 5 -14 4 -2 -11 12 -15 12
-17 -1 -12 -8 3 -21 -1 -28 -10 -7 -8 -9 -15 -6 -15 4 0 0 -7 -8 -16 -9 -8
-16 -22 -16 -30 0 -9 -5 -12 -12 -8 -8 5 -9 0 -4 -17 4 -13 8 -33 7 -44 0 -15
5 -12 22 15 12 19 21 37 21 40 -1 3 7 11 17 18 11 7 19 19 19 25 0 7 -7 4 -14
-6 -8 -10 -17 -14 -20 -9 -6 10 22 27 37 23 5 -1 11 8 14 19 3 11 10 20 15 20
5 0 6 5 3 10 -3 6 -2 10 4 10 5 0 20 14 32 31 22 31 22 32 4 45 -10 8 -14 14
-9 14 6 0 15 -5 22 -12 6 -6 13 -10 15 -7 2 2 22 28 46 57 41 49 42 54 26 66
-14 10 -15 15 -5 21 8 5 11 4 7 -2 -4 -6 -1 -13 7 -16 12 -5 114 88 109 98 -2
3 0 5 5 6 12 2 157 143 154 151 -1 5 5 8 14 8 14 0 15 2 3 17 -13 15 -12 15 5
6 16 -9 29 -3 75 35 31 25 55 49 54 54 -2 4 0 7 5 7 20 -3 32 3 32 17 0 8 5
12 11 9 5 -4 19 1 30 11 15 14 17 20 6 32 -10 13 -9 14 10 4 17 -10 25 -9 36
3 8 8 18 11 21 7 4 -3 4 2 0 12 -6 15 -3 17 13 12 12 -4 27 1 41 15 25 22 21
42 -6 32 -9 -3 -14 -3 -11 1 4 4 16 8 27 11 16 3 20 -1 17 -16 -3 -15 -1 -17
13 -9 53 31 73 67 30 55 -18 -5 -19 -4 -8 4 8 5 12 12 9 15 -3 3 -35 -14 -72
-38z"/>
<path d="M4866 4505 c-5 -15 30 -65 46 -65 5 0 7 8 4 18 -5 15 -4 15 8 -1 8
-11 12 -25 9 -33 -3 -9 1 -14 12 -14 9 0 13 -5 10 -10 -4 -6 -12 -7 -18 -4 -7
4 2 -8 19 -27 17 -19 34 -42 38 -53 3 -10 12 -16 19 -13 8 3 20 1 28 -5 11 -8
10 -9 -4 -4 -15 5 -17 2 -11 -17 4 -12 17 -35 29 -52 11 -16 30 -47 40 -67 11
-21 24 -34 29 -30 22 13 32 9 31 -12 -1 -11 2 -30 8 -41 7 -15 7 -17 -2 -9 -6
6 -13 21 -16 34 -5 28 -15 39 -15 16 0 -20 70 -156 80 -156 5 0 11 -7 14 -16
3 -9 2 -12 -5 -8 -6 3 1 -16 15 -42 14 -27 26 -54 26 -61 0 -6 9 -10 19 -8 18
3 19 0 10 -21 -12 -32 -12 -30 7 -48 8 -9 16 -25 17 -35 0 -11 5 -17 10 -14 5
3 6 -4 2 -16 -4 -15 -3 -21 7 -19 8 2 12 -5 11 -17 -4 -30 42 -196 52 -188 4
5 5 3 2 -3 -9 -16 15 -86 27 -81 7 3 10 -13 7 -45 -4 -58 6 -121 19 -113 5 3
12 1 15 -5 4 -6 1 -9 -6 -8 -7 2 -15 -5 -17 -16 -3 -13 0 -16 9 -11 8 6 11 4
6 -7 -3 -9 0 -21 6 -27 8 -8 8 -11 -1 -11 -7 0 -12 -9 -12 -20 0 -11 4 -20 9
-20 5 0 9 -15 9 -32 -1 -51 10 -156 17 -168 4 -6 2 -66 -3 -133 -9 -126 -11
-174 -13 -312 -1 -57 -4 -72 -9 -50 l-8 30 -1 -30 c-3 -61 -14 -140 -21 -155
-10 -20 -24 -101 -21 -119 1 -8 -3 -17 -9 -21 -6 -4 -12 -28 -13 -53 0 -25 -4
-44 -8 -41 -9 5 -29 -60 -29 -93 0 -13 -4 -23 -9 -23 -11 0 -26 -57 -22 -84 1
-10 -2 -15 -7 -12 -11 7 -37 -57 -41 -100 0 -9 -6 -12 -13 -8 -6 4 -8 3 -4 -4
3 -6 2 -13 -4 -17 -6 -4 -8 -10 -5 -15 3 -5 1 -11 -5 -15 -5 -3 -10 -21 -11
-38 0 -18 -3 -26 -6 -19 -3 9 -12 3 -25 -18 -10 -18 -17 -35 -14 -38 3 -3 -1
-10 -9 -16 -11 -8 -12 -15 -4 -26 10 -13 10 -13 6 1 -3 9 1 16 8 16 10 0 11
-5 5 -17 -5 -10 -6 -21 -2 -25 4 -5 1 -4 -7 0 -11 6 -13 4 -8 -9 4 -11 3 -15
-4 -11 -6 4 -8 13 -5 20 2 7 2 16 -1 19 -8 8 -64 -92 -67 -120 -2 -11 -6 -27
-11 -34 -4 -7 -2 -16 6 -22 10 -7 8 -8 -7 -3 -24 6 -54 -17 -54 -41 0 -9 -5
-12 -11 -8 -6 3 -3 -5 6 -20 19 -28 10 -37 -10 -10 -10 14 -16 9 -49 -40 -31
-48 -35 -59 -25 -77 8 -15 8 -19 0 -15 -6 4 -11 2 -11 -3 0 -17 15 -13 33 7
22 24 22 38 0 21 -16 -13 -17 -12 -5 3 8 10 18 16 22 15 15 -4 72 85 67 104
-3 11 2 27 11 37 10 10 13 12 9 5 -5 -6 -5 -18 -1 -24 5 -8 3 -9 -6 -4 -9 5
-11 4 -6 -4 10 -16 26 -4 26 20 0 10 4 19 9 19 14 0 53 71 47 86 -3 8 0 13 7
11 6 -1 25 25 42 58 16 33 33 61 37 63 4 2 10 19 14 38 3 19 9 32 12 29 8 -8
44 74 37 84 -3 5 -2 11 2 13 18 8 52 86 47 109 -4 17 -3 20 4 11 7 -11 10 -9
15 7 3 14 1 19 -6 14 -7 -3 -3 3 7 15 14 16 15 22 6 22 -10 0 -10 3 2 13 9 6
26 46 38 87 12 41 26 85 31 98 5 13 9 31 9 40 0 15 -2 15 -10 2 -6 -9 -10 -10
-10 -3 0 7 8 16 17 21 12 7 18 27 21 71 2 33 8 58 13 55 5 -3 9 5 8 18 0 13 4
41 9 63 30 117 45 497 29 698 -9 107 -14 130 -29 121 -6 -4 -6 1 0 13 11 19 5
106 -7 99 -3 -2 -7 12 -8 32 -1 21 -2 45 -3 55 -1 9 -6 17 -11 17 -6 0 -9 8
-8 18 1 9 0 19 -1 22 -1 3 -3 21 -6 40 -2 19 -10 51 -16 70 -7 19 -11 38 -10
43 1 4 -2 7 -7 7 -5 0 -11 19 -15 43 -11 68 -28 117 -39 110 -6 -3 -7 -1 -3 5
3 6 -2 32 -12 58 -19 46 -20 47 -31 25 -7 -12 -15 -20 -18 -18 -2 3 3 16 11
29 9 14 13 28 9 32 -5 4 -8 11 -8 14 -2 20 -18 52 -26 52 -5 0 -9 7 -9 15 0 8
-4 15 -10 15 -5 0 -10 5 -10 11 0 5 4 7 10 4 15 -9 -58 128 -75 141 -8 6 -12
14 -8 17 3 4 -3 19 -13 34 -10 15 -27 45 -37 66 -11 20 -23 37 -28 37 -5 0
-15 16 -23 35 -8 19 -21 38 -29 41 -7 2 -14 10 -14 17 0 22 -35 67 -46 60 -6
-4 -8 0 -4 11 4 10 3 15 -3 11 -6 -3 -10 1 -10 10 0 8 -7 18 -15 21 -8 4 -15
10 -15 15 0 12 -42 53 -57 55 -6 1 -14 -4 -17 -11z"/>
<path d="M407 4198 c-18 -28 -31 -55 -29 -60 1 -4 -3 -8 -9 -8 -5 0 -7 -5 -4
-10 4 -6 11 -7 17 -4 7 4 8 2 4 -4 -4 -6 -13 -9 -21 -6 -9 4 -21 -9 -35 -36
-12 -23 -17 -39 -11 -36 7 4 8 1 5 -8 -3 -9 -10 -14 -14 -11 -8 5 -37 -54 -32
-67 1 -5 -3 -8 -8 -8 -6 0 -4 -14 5 -32 16 -33 16 -33 -2 -10 l-19 23 -28 -68
c-16 -37 -29 -79 -29 -93 -1 -14 -6 -28 -12 -32 -5 -4 -10 -11 -11 -15 0 -4
-4 -15 -8 -24 -4 -9 -6 -20 -4 -25 1 -5 -6 -23 -15 -41 -9 -17 -14 -40 -10
-49 4 -11 2 -15 -4 -11 -14 9 -69 -209 -88 -343 -3 -25 -8 -52 -10 -60 -12
-44 -19 -188 -18 -380 1 -256 5 -308 39 -505 8 -44 16 -92 18 -108 3 -15 12
-37 21 -49 8 -13 15 -27 15 -33 0 -5 -5 -3 -10 5 -5 8 -10 11 -10 6 0 -13 39
-145 55 -186 21 -56 28 -74 31 -90 2 -8 9 -19 16 -25 8 -5 14 -19 14 -30 1
-11 4 -33 9 -48 6 -22 10 -26 17 -15 7 9 8 7 5 -9 -3 -13 -2 -23 2 -23 4 0 8
-6 8 -14 0 -8 6 -28 13 -46 12 -30 14 -31 27 -14 16 22 17 11 2 -18 -6 -12 -7
-18 -1 -14 5 3 13 -1 16 -10 4 -10 2 -13 -6 -8 -6 4 6 -24 27 -62 21 -38 45
-81 53 -97 14 -28 32 -28 32 -1 0 18 -25 46 -34 37 -3 -4 -6 -2 -6 4 0 22 14
21 33 -4 17 -21 19 -30 10 -54 -9 -22 -8 -32 2 -42 7 -7 20 -28 29 -46 9 -17
24 -35 31 -38 8 -3 13 -9 10 -13 -3 -5 0 -14 7 -22 7 -7 19 -25 27 -40 8 -15
18 -25 23 -22 4 3 8 -1 8 -8 0 -8 6 -22 13 -33 11 -14 16 -15 22 -5 6 9 4 11
-4 5 -7 -4 -6 4 4 19 17 25 16 26 -13 55 -16 17 -27 33 -24 36 3 3 0 5 -6 5
-7 0 -12 6 -12 13 0 7 -9 23 -20 35 -11 12 -20 26 -20 31 0 5 -5 13 -12 17 -7
5 -8 3 -3 -7 7 -12 6 -12 -7 -1 -13 10 -17 10 -21 0 -3 -7 -6 0 -6 16 -1 25 1
27 16 15 15 -13 15 -12 4 9 -6 12 -16 22 -22 22 -6 0 -8 4 -5 8 3 5 -6 25 -19
45 -14 20 -25 41 -25 48 0 8 -3 9 -13 0 -11 -8 -18 -7 -30 7 -15 16 -15 18 2
18 12 0 17 -6 14 -16 -4 -12 -3 -13 5 -1 13 18 3 44 -14 37 -8 -3 -14 0 -14 7
0 8 -4 7 -11 -3 -9 -13 -10 -13 -6 0 2 8 13 14 23 12 11 -2 15 0 8 5 -6 4 -14
21 -18 36 -4 15 -10 25 -15 22 -11 -6 -25 24 -22 50 2 19 1 19 -16 -2 l-18
-23 -2 27 c0 15 2 21 7 14 5 -10 9 -8 13 4 4 10 3 14 -4 9 -6 -4 -9 1 -8 12 2
11 -2 34 -10 52 -12 29 -22 37 -43 33 -4 0 -3 10 2 24 6 16 5 35 -2 56 -10 30
-12 31 -25 14 -15 -22 -17 -16 -3 19 7 19 6 29 -6 41 -9 8 -11 15 -5 15 7 0 7
10 0 30 -6 16 -15 30 -19 30 -5 0 -7 12 -4 26 3 14 1 23 -5 20 -5 -4 -7 3 -3
16 3 13 1 19 -5 15 -7 -5 -9 0 -6 12 3 10 0 22 -6 25 -5 4 -7 14 -4 23 4 10 2
14 -4 10 -6 -4 -8 8 -6 34 3 31 1 39 -8 33 -9 -5 -10 -2 -6 9 3 9 2 19 -3 22
-5 3 -6 13 -3 22 4 11 3 14 -5 9 -8 -5 -10 2 -6 24 5 22 3 30 -7 30 -12 0 -12
2 0 9 13 9 10 47 -9 101 -1 3 -6 -6 -11 -20 -6 -18 -7 -14 -2 15 4 22 6 54 5
70 -1 17 -1 125 -1 240 1 116 1 238 1 273 0 34 3 60 7 57 7 -4 17 60 26 170 1
17 7 43 14 59 6 16 9 37 6 47 -4 12 -1 19 7 19 10 0 9 3 -2 10 -8 5 -10 10 -4
10 13 0 28 53 24 89 -1 15 2 21 10 16 7 -4 10 -1 9 6 -1 8 1 23 5 34 4 11 13
33 19 49 6 16 10 50 10 75 -1 40 0 42 7 16 4 -16 8 -23 9 -15 1 8 4 26 8 39 5
19 3 22 -8 17 -8 -4 -3 1 10 12 15 12 22 25 18 36 -4 9 -2 16 3 16 15 0 40 57
33 76 -4 11 -3 15 5 10 11 -7 28 29 23 53 -1 7 2 10 8 6 7 -3 8 0 5 9 -3 9 -2
16 4 16 14 0 52 79 45 96 -3 9 0 14 8 12 9 -2 13 4 11 16 -2 12 1 16 10 10 7
-4 10 -4 6 0 -4 5 2 17 12 29 16 16 17 24 8 41 -10 19 -10 20 6 7 9 -8 16 -10
15 -5 -3 19 1 35 9 30 4 -2 6 11 4 30 -2 19 -6 34 -9 34 -2 0 -18 -23 -36 -52z"/>
<path d="M930 4023 c-14 -2 -32 -7 -40 -10 -8 -4 -22 -7 -30 -8 -35 -4 -80
-18 -80 -26 0 -5 -7 -5 -17 -2 -11 4 -14 3 -9 -5 5 -8 -1 -12 -15 -12 -33 0
-101 -42 -94 -58 4 -12 2 -12 -8 -3 -11 9 -17 8 -27 -3 -6 -9 -9 -20 -5 -25 3
-6 0 -8 -8 -5 -17 6 -50 -23 -41 -37 3 -5 0 -8 -8 -7 -7 2 -12 -2 -11 -9 2 -8
-4 -10 -14 -6 -13 5 -15 2 -10 -11 4 -9 3 -15 -3 -11 -5 3 -15 -2 -22 -10 -7
-9 -21 -24 -32 -35 -10 -10 -15 -23 -11 -29 3 -7 2 -10 -3 -9 -17 5 -75 -85
-75 -114 0 -16 -5 -27 -11 -25 -13 4 -69 -100 -61 -113 6 -9 -11 -50 -24 -60
-4 -3 -15 -32 -25 -65 -10 -33 -22 -73 -28 -90 -6 -16 -11 -40 -12 -52 0 -13
-3 -23 -6 -23 -6 0 -10 -25 -12 -72 0 -16 -5 -25 -11 -21 -6 3 -7 1 -3 -5 4
-7 4 -18 -1 -24 -4 -7 -9 -22 -10 -33 -6 -47 -14 -113 -20 -149 -4 -30 -3 -37
7 -31 9 6 11 4 6 -4 -11 -17 -8 -208 3 -283 6 -35 13 -83 16 -108 12 -101 18
-136 27 -147 5 -6 11 -32 13 -58 7 -67 35 -156 47 -149 6 4 8 -1 4 -13 -4 -11
-3 -30 2 -43 l9 -23 16 24 c9 13 17 18 17 12 0 -7 -4 -14 -9 -17 -18 -12 -18
-46 0 -67 10 -12 19 -27 19 -33 0 -6 -5 -4 -11 4 -8 12 -9 10 -4 -7 17 -59 53
-135 58 -122 4 9 6 7 6 -6 -2 -36 1 -46 11 -40 6 3 10 -4 10 -17 1 -13 14 -47
29 -77 25 -49 29 -53 39 -35 15 25 15 9 1 -18 -6 -12 -7 -18 -1 -14 5 3 13 -1
16 -10 4 -10 2 -13 -6 -8 -15 9 28 -63 55 -93 11 -13 17 -23 13 -23 -5 0 3
-15 18 -34 14 -19 26 -39 26 -44 0 -5 11 -21 24 -35 13 -14 22 -28 20 -30 -3
-2 3 -10 13 -18 14 -12 16 -12 8 0 -5 10 -4 12 3 7 7 -4 12 -16 12 -26 0 -24
17 -35 33 -22 9 8 12 3 14 -15 1 -19 -1 -22 -8 -12 -5 8 -9 10 -9 4 0 -16 67
-88 71 -76 2 6 10 1 18 -11 13 -21 13 -22 -2 -9 -32 26 -17 -2 26 -48 23 -25
58 -65 77 -89 32 -40 68 -62 39 -24 -7 9 -1 6 14 -7 15 -14 27 -30 27 -36 0
-17 35 -46 45 -38 4 5 5 3 2 -3 -8 -13 107 -115 125 -111 7 2 9 2 5 -1 -5 -2
2 -15 14 -28 23 -25 46 -33 33 -12 -4 7 -3 8 5 4 6 -4 9 -11 7 -15 -3 -4 9
-18 27 -31 18 -13 37 -28 42 -32 6 -4 24 -18 40 -31 64 -50 126 -88 134 -83 5
3 11 -1 15 -9 3 -8 10 -15 16 -15 6 0 8 5 5 10 -3 6 -1 10 5 10 7 0 10 -7 6
-15 -6 -17 30 -41 54 -36 8 2 12 -1 7 -5 -6 -7 101 -72 128 -78 6 -1 21 -9 35
-18 14 -9 45 -24 70 -34 25 -9 50 -21 56 -26 6 -4 35 -17 65 -27 30 -10 78
-28 108 -40 30 -11 58 -18 62 -15 5 3 9 0 9 -5 0 -6 5 -11 11 -11 5 0 7 5 4
10 -3 6 4 10 16 10 18 0 19 -3 9 -15 -10 -13 -5 -14 36 -11 27 2 43 1 37 -1
-25 -9 -12 -23 15 -17 21 4 24 3 12 -6 -13 -9 -12 -11 5 -9 17 2 71 -3 180
-18 68 -10 518 -12 541 -3 14 6 23 6 20 1 -6 -9 70 -4 154 10 30 5 63 11 72
13 10 1 20 5 24 8 3 4 22 4 41 1 28 -5 34 -3 28 7 -6 10 -4 12 9 7 21 -8 68 2
61 13 -2 4 12 5 31 3 20 -2 33 0 30 5 -3 5 6 7 19 4 14 -2 25 0 25 6 0 5 6 10
13 9 39 -1 58 4 51 15 -4 7 -3 8 4 4 14 -8 92 13 92 25 0 5 6 6 14 3 7 -3 16
2 20 11 4 13 13 15 32 11 19 -5 24 -4 18 5 -5 8 -2 11 7 7 19 -7 62 9 55 21
-3 5 4 7 16 4 19 -4 20 -3 8 6 -12 9 -10 10 11 9 31 -2 91 21 83 33 -3 5 7 9
21 9 14 0 24 4 21 9 -3 5 0 8 7 8 22 -3 107 45 100 56 -3 6 -1 7 6 3 13 -9
102 44 98 58 -2 6 -9 12 -17 14 -7 3 -10 0 -6 -7 5 -7 1 -9 -10 -4 -11 4 -15
3 -10 -5 3 -6 3 -13 -2 -16 -4 -2 -8 5 -8 18 0 23 23 28 58 12 11 -5 28 0 48
14 31 22 40 36 17 27 -6 -2 -18 2 -26 10 -12 13 -11 14 10 8 13 -4 29 -10 35
-12 6 -2 28 12 50 31 21 20 44 36 50 36 6 0 44 33 85 73 40 39 69 65 64 57 -8
-13 -7 -13 8 -1 25 20 21 32 -10 26 -26 -5 -26 -5 -5 4 12 6 28 8 35 5 16 -6
41 21 33 34 -3 5 -22 7 -43 5 -107 -13 -339 -7 -360 9 -7 6 -17 7 -22 4 -5 -4
-12 -2 -16 4 -3 5 -16 10 -29 10 -12 0 -26 4 -32 9 -5 4 -31 17 -59 27 -27 10
-64 26 -81 36 -18 10 -40 16 -50 12 -16 -5 -17 -4 -4 6 12 9 9 11 -15 6 -16
-3 -24 -3 -18 0 7 3 13 10 13 15 0 6 -9 5 -21 -1 -22 -12 -32 -8 -35 15 -1 9
2 12 8 9 7 -4 8 -2 4 4 -4 7 -11 12 -17 12 -5 0 -30 16 -56 35 -27 19 -53 39
-58 43 -6 4 -22 16 -35 27 -21 18 -23 18 -17 2 4 -11 3 -16 -3 -12 -6 3 -10
12 -10 19 0 7 -35 44 -77 82 -42 38 -73 63 -69 55 6 -10 5 -12 -2 -7 -7 4 -12
13 -12 20 0 7 -12 23 -27 37 -14 13 -23 18 -18 10 5 -10 4 -12 -4 -7 -6 4 -9
11 -7 15 3 4 -29 43 -70 86 -42 44 -72 74 -68 66 4 -9 3 -12 -4 -7 -6 4 -9 12
-6 19 2 7 -7 24 -21 37 -27 25 -35 17 -10 -10 14 -15 14 -18 1 -23 -10 -4 -13
-1 -9 9 6 17 -13 19 -21 2 -7 -15 4 29 12 51 4 11 1 13 -12 8 -14 -6 -17 -3
-12 9 5 14 4 15 -8 5 -28 -23 -60 1 -94 72 -2 4 -1 7 3 7 3 0 10 -11 15 -24
13 -35 59 -64 70 -46 6 9 -3 28 -27 57 -33 40 -53 57 -37 31 4 -7 3 -8 -5 -4
-7 4 -10 13 -8 19 4 12 -3 23 -40 63 -12 13 -20 24 -17 24 3 0 -1 6 -8 14 -7
8 -17 11 -22 8 -5 -3 -6 0 -2 6 7 13 -51 98 -65 95 -4 -2 -6 3 -3 10 2 7 -4
22 -16 32 -11 10 -20 24 -20 32 0 8 -4 11 -10 8 -5 -3 -10 1 -10 9 0 9 -5 16
-12 16 -6 0 -9 3 -5 6 3 3 -6 17 -21 31 -15 14 -18 19 -8 12 19 -14 19 -14 1
16 -25 39 -30 44 -21 21 5 -16 4 -17 -9 -6 -17 14 -19 7 -6 -19 8 -13 5 -17
-12 -18 -16 -2 -18 0 -8 7 12 7 12 11 2 24 -8 9 -9 16 -3 16 24 0 18 32 -13
73 -19 25 -31 48 -27 52 4 3 0 5 -8 3 -9 -2 -14 3 -12 14 1 9 -3 20 -9 24 -7
4 -9 3 -6 -3 3 -5 0 -10 -8 -10 -10 0 -11 5 -6 15 9 16 -63 139 -79 135 -5 -2
-7 3 -4 11 3 7 -2 20 -10 29 -9 9 -16 21 -16 27 0 6 -5 8 -10 5 -6 -4 -8 -10
-6 -14 3 -4 -6 -7 -19 -7 -20 0 -22 3 -14 18 12 23 20 23 13 1 -5 -15 -3 -15
10 1 21 26 4 45 -21 26 -17 -13 -17 -13 -1 5 17 18 16 20 -9 54 -15 20 -30 37
-35 39 -4 2 -5 9 -2 17 3 7 0 16 -7 21 -7 4 -10 3 -6 -3 3 -5 0 -10 -8 -10
-11 0 -12 4 -4 13 13 16 -18 67 -34 57 -5 -3 -7 -1 -4 4 8 13 -37 96 -46 86
-4 -3 -7 1 -7 9 0 8 -9 27 -20 40 -10 14 -16 29 -12 34 4 5 -1 2 -11 -5 -9 -8
-20 -11 -24 -7 -3 3 -1 6 5 6 7 0 12 7 12 15 0 8 -4 15 -10 15 -5 0 -10 9 -10
21 0 13 -4 18 -12 13 -7 -5 -9 -2 -6 7 3 9 -13 44 -38 80 -24 35 -44 69 -44
76 0 6 -5 15 -12 19 -6 4 -8 3 -5 -3 3 -5 0 -10 -8 -10 -8 0 -12 4 -9 8 12 20
-91 193 -109 182 -6 -4 -8 0 -4 10 3 9 -3 26 -14 39 -11 13 -18 18 -15 12 3
-6 -1 -11 -9 -11 -10 0 -11 5 -6 16 9 15 -50 107 -93 144 -12 10 -15 15 -7 11
9 -5 8 2 -5 19 -10 15 -25 27 -31 27 -7 0 -13 7 -13 15 0 8 -5 15 -11 15 -5 0
-8 4 -4 9 3 5 -6 18 -20 29 -14 11 -25 25 -25 32 0 6 -4 8 -10 5 -5 -3 -10 -1
-10 6 0 8 -4 8 -16 -1 -12 -11 -18 -10 -32 5 -16 18 -16 18 1 5 28 -21 46 3
22 30 -10 11 -22 17 -27 14 -4 -3 -7 -1 -6 4 2 6 -17 25 -42 42 -38 28 -42 29
-25 9 11 -14 -1 -3 -27 23 -33 35 -51 46 -64 41 -10 -4 -15 -2 -11 3 6 10 -60
40 -76 36 -5 -1 -19 6 -33 17 -17 13 -37 18 -62 16 -20 -1 -31 -1 -24 2 6 3
12 9 12 15 0 5 -6 8 -12 5 -7 -2 -27 1 -45 9 -17 7 -42 10 -55 7 -19 -4 -20
-3 -8 7 13 10 12 11 -4 6 -10 -4 -24 -2 -30 2 -13 10 -10 10 -131 15 -49 2
-101 2 -115 0z m677 -370 c-4 -3 19 -25 51 -48 31 -23 63 -49 71 -58 7 -9 18
-14 24 -10 6 4 7 1 2 -6 -4 -7 1 -20 14 -32 24 -23 39 -25 21 -4 -7 9 -10 18
-6 22 9 10 17 -2 18 -28 2 -36 35 -79 56 -73 13 5 14 4 3 -4 -16 -11 -5 -36
11 -26 7 4 8 2 4 -5 -9 -14 12 -43 25 -35 16 9 10 26 -7 20 -14 -5 -15 -4 -5
8 7 8 10 20 6 26 -3 5 -1 10 4 10 6 0 12 -10 12 -22 1 -13 3 -36 4 -53 2 -31
34 -95 48 -95 4 0 10 7 13 15 6 16 24 11 24 -6 0 -6 -5 -7 -10 -4 -16 10 -24
-25 -10 -38 10 -10 12 -8 7 6 -4 11 -3 16 4 12 6 -4 8 -14 5 -22 -3 -8 5 -29
19 -47 14 -18 22 -37 17 -42 -4 -4 0 -3 10 4 13 11 18 10 25 0 11 -17 11 -58
0 -51 -5 3 3 -13 17 -35 13 -22 32 -56 40 -76 8 -20 18 -36 21 -36 3 0 1 10
-5 23 -11 21 -11 21 5 2 8 -11 13 -25 11 -32 -3 -6 0 -13 6 -15 6 -2 11 -18
12 -35 0 -17 3 -30 6 -28 3 2 5 -356 4 -796 -1 -742 0 -800 16 -814 10 -9 24
-15 31 -13 8 2 13 -2 12 -8 -1 -6 9 -22 23 -34 24 -23 24 -23 40 -4 15 18 15
18 5 -2 -8 -17 -7 -25 6 -35 9 -8 14 -9 10 -3 -9 16 43 9 60 -9 12 -12 11 -16
-4 -28 -16 -13 -17 -12 -5 3 16 20 -1 34 -17 14 -9 -10 -8 -16 4 -26 8 -7 15
-9 15 -4 0 4 6 0 13 -11 8 -10 19 -15 25 -11 7 4 10 2 7 -6 -3 -8 7 -25 22
-38 15 -14 21 -17 13 -6 -16 21 -23 49 -9 40 5 -3 7 -9 5 -13 -3 -4 5 -18 17
-32 53 -59 103 -54 -594 -54 -351 0 -639 0 -639 1 0 5 51 55 57 56 14 2 96 68
85 68 -6 0 -14 -4 -17 -10 -12 -19 -43 -31 -51 -18 -4 6 -3 8 3 5 6 -4 22 2
36 13 14 11 31 20 37 20 10 0 36 18 105 73 6 4 29 22 53 38 l42 31 -1 1208 c0
665 2 1214 6 1219 3 6 9 11 12 11 4 0 3 -3 0 -7z"/>
<path d="M6300 2410 l0 -650 80 0 80 0 2 512 3 511 339 -511 339 -512 90 0
c77 0 88 2 83 16 -3 9 -6 301 -6 650 l0 635 -77 -3 -78 -3 0 -503 c0 -276 -3
-502 -6 -502 -4 0 -157 227 -340 505 l-334 504 -87 1 -88 0 0 -650z"/>
<path d="M11190 2410 l0 -650 75 0 75 0 0 650 0 650 -75 0 -75 0 0 -650z"/>
<path d="M14500 2410 l0 -650 75 0 75 0 1 173 c1 94 1 177 0 182 0 6 25 37 57
68 l59 58 90 -138 c50 -76 120 -184 157 -240 l66 -103 95 0 95 0 -98 148 c-54
81 -143 214 -197 297 l-98 149 178 173 177 173 -99 0 -99 0 -187 -188 c-103
-104 -189 -186 -191 -183 -3 4 -7 497 -6 714 0 15 -10 17 -75 17 l-75 0 0
-650z"/>
<path d="M7850 2707 c-72 -21 -118 -47 -174 -98 -100 -91 -140 -201 -140 -384
0 -126 10 -174 50 -260 30 -63 108 -144 169 -174 50 -25 161 -51 221 -51 168
-1 316 86 380 223 37 81 37 81 -67 92 l-64 6 -29 -57 c-50 -95 -136 -141 -247
-131 -126 11 -222 106 -249 246 -5 30 -10 58 -10 62 0 5 158 9 350 9 l350 0 0
63 c-1 142 -54 281 -137 358 -24 22 -74 54 -110 71 -55 26 -80 31 -157 34 -56
3 -108 -1 -136 -9z m202 -129 c83 -25 156 -119 171 -220 l6 -38 -266 0 -265 0
7 43 c28 166 185 264 347 215z"/>
<path d="M9865 2706 c-39 -17 -90 -68 -115 -115 l-19 -36 -1 73 0 72 -70 0
-70 0 0 -470 0 -470 74 0 74 0 5 303 c3 251 7 312 22 359 32 104 109 153 203
129 26 -6 53 -13 60 -14 9 -1 24 24 39 66 30 78 30 77 -51 102 -60 18 -111 19
-151 1z"/>
<path d="M10475 2714 c-147 -23 -249 -99 -291 -216 -22 -62 -20 -65 44 -72 31
-4 64 -9 72 -12 11 -3 20 11 33 45 34 97 112 136 252 129 137 -7 193 -55 202
-173 l5 -62 -103 -21 c-57 -12 -142 -26 -189 -32 -114 -14 -185 -36 -241 -71
-111 -70 -152 -219 -93 -337 51 -102 138 -146 289 -147 113 0 182 20 271 80
37 25 68 45 70 45 1 0 10 -25 19 -55 l16 -55 79 0 c44 0 80 2 80 5 0 3 -8 22
-17 43 -14 31 -17 91 -23 373 l-6 337 -27 55 c-48 98 -132 137 -302 142 -60 2
-123 1 -140 -1z m313 -566 c-6 -98 -26 -149 -75 -200 -91 -94 -281 -114 -362
-39 -58 55 -60 150 -4 203 36 33 70 44 212 68 64 11 136 26 161 34 76 24 73
26 68 -66z"/>
<path d="M13155 2707 c-203 -52 -315 -222 -315 -477 0 -278 130 -450 366 -483
222 -31 413 84 477 288 31 99 30 312 -1 399 -46 126 -129 214 -244 258 -66 25
-211 33 -283 15z m251 -152 c54 -34 107 -104 126 -168 8 -25 13 -91 12 -162
-1 -99 -5 -130 -23 -177 -75 -193 -314 -239 -445 -86 -58 67 -79 153 -74 297
3 103 7 124 32 174 30 62 97 128 148 145 18 6 65 10 104 9 59 -2 79 -7 120
-32z"/>
<path d="M14160 2698 c-30 -15 -57 -40 -80 -75 -39 -59 -52 -66 -50 -25 1 15
2 44 1 65 l-1 37 -65 0 -65 0 0 -470 0 -470 74 0 74 0 4 308 c4 255 7 316 21
359 39 117 140 159 258 109 14 -6 22 7 44 64 15 39 25 73 22 76 -13 13 -121
44 -155 44 -21 0 -58 -10 -82 -22z"/>
<path d="M15581 2705 c-135 -38 -213 -130 -214 -250 -1 -107 47 -179 148 -224
25 -11 95 -34 157 -51 193 -53 237 -70 258 -97 44 -56 13 -147 -63 -186 -49
-25 -150 -33 -217 -17 -68 16 -133 77 -149 138 -13 47 -17 48 -104 31 -35 -7
-57 -17 -57 -25 0 -34 45 -126 81 -167 52 -59 124 -94 227 -109 140 -20 283
13 370 87 18 15 45 51 60 79 22 42 27 64 27 127 0 67 -3 81 -30 125 -41 66
-106 98 -322 159 -186 52 -229 75 -238 130 -8 42 25 92 78 115 57 26 176 27
233 1 44 -20 78 -60 90 -105 6 -27 9 -28 53 -22 92 13 101 16 101 39 0 37 -45
121 -83 154 -56 49 -136 74 -252 79 -70 3 -116 -1 -154 -11z"/>
<path d="M8584 2685 c-3 -8 -4 -169 -2 -357 6 -402 9 -423 87 -499 100 -96
280 -116 407 -44 22 13 59 44 82 69 l42 46 0 -70 0 -70 70 0 70 0 0 470 0 470
-75 0 c-69 0 -75 -2 -80 -22 -2 -13 -6 -160 -7 -328 -3 -290 -4 -307 -25 -345
-27 -51 -57 -79 -113 -104 -54 -25 -157 -28 -199 -6 -39 20 -78 69 -91 113 -6
22 -10 170 -10 365 l0 327 -75 0 c-58 0 -77 -4 -81 -15z"/>
<path d="M11485 2688 c4 -14 196 -652 247 -825 l31 -103 82 0 82 0 43 163 c79
304 149 562 150 557 0 -3 34 -135 75 -295 41 -159 83 -320 92 -357 l17 -68 81
0 80 0 124 398 c69 218 135 430 147 470 l23 73 -77 -3 -76 -3 -10 -35 c-5 -19
-53 -181 -106 -360 l-97 -325 -15 50 c-7 28 -50 191 -93 363 l-80 312 -80 0
-81 0 -58 -217 c-32 -120 -76 -285 -97 -367 -21 -81 -40 -150 -42 -152 -1 -2
-48 162 -103 364 l-99 367 -83 3 c-63 2 -81 0 -77 -10z"/>
<path d="M6306 1404 c-2 -6 1 -17 7 -24 9 -10 9 -11 0 -6 -8 4 -11 2 -8 -6 4
-11 886 -13 4893 -10 l4888 2 0 25 c0 14 -2 25 -5 25 -4 0 -2203 1 -4888 3
-3618 1 -4884 -1 -4887 -9z"/>
<path d="M605 1122 c-14 -10 -18 -42 -5 -42 5 0 10 -6 10 -14 0 -7 23 -42 50
-76 28 -34 50 -57 50 -51 0 7 4 10 10 6 5 -3 6 -13 3 -23 -3 -9 -3 -14 2 -10
4 4 21 -11 37 -32 23 -33 33 -39 53 -36 17 3 23 1 19 -6 -5 -7 -2 -8 5 -4 9 6
9 12 -3 25 -13 14 -107 123 -197 229 -15 17 -24 34 -21 37 8 8 -1 6 -13 -3z"/>
<path d="M4890 1087 c-14 -17 -25 -34 -25 -37 0 -3 -4 -11 -8 -17 -5 -7 -5
-19 -1 -25 6 -10 5 -10 -8 0 -12 10 -18 10 -27 -2 -9 -11 -9 -16 0 -22 8 -5 9
-3 4 6 -5 9 -4 11 4 6 6 -4 9 -11 6 -16 -3 -4 0 -10 6 -12 6 -2 0 -12 -13 -23
-18 -16 -20 -17 -9 -2 9 12 11 21 4 28 -6 6 -55 -36 -140 -121 -71 -71 -132
-127 -136 -124 -3 3 -15 -8 -28 -25 -12 -17 -25 -28 -29 -26 -10 6 -35 -24
-27 -32 4 -3 2 -14 -4 -25 -8 -14 -17 -18 -34 -14 -16 4 -32 -1 -52 -17 -15
-13 -52 -40 -80 -59 -29 -19 -50 -38 -46 -41 6 -7 -13 -11 -31 -8 -5 1 -4 -4
2 -11 9 -11 7 -14 -9 -15 -12 -1 -17 3 -13 9 4 7 2 8 -5 4 -6 -4 -8 -12 -5
-18 4 -6 1 -9 -7 -6 -18 7 -51 -10 -44 -22 4 -6 -1 -7 -11 -3 -12 4 -15 3 -10
-5 6 -11 -12 -17 -36 -13 -5 0 -8 -4 -8 -10 0 -5 -5 -7 -12 -3 -6 4 -8 3 -4
-4 7 -12 44 -8 60 8 5 5 19 10 31 10 14 -1 10 -5 -15 -16 -19 -9 -39 -17 -45
-18 -5 -1 -21 -8 -35 -15 -22 -11 -23 -11 -7 2 16 13 16 15 2 21 -9 3 -13 2
-10 -3 5 -10 -32 -27 -50 -23 -5 1 -1 -5 9 -13 23 -18 14 -20 -16 -4 -18 10
-20 9 -14 -6 5 -15 4 -16 -8 -6 -10 8 -16 9 -21 1 -3 -5 0 -10 7 -10 10 0 10
-2 -1 -9 -11 -7 -10 -10 5 -13 27 -7 261 117 272 144 2 4 12 8 23 8 10 0 18 6
16 13 -1 6 6 11 15 9 9 -1 20 3 24 9 5 8 3 9 -6 4 -9 -5 -11 -4 -6 4 4 6 13
10 20 9 13 -3 221 146 239 172 7 10 16 17 21 18 16 0 113 111 105 119 -5 5 -2
17 7 29 15 18 15 18 5 -3 -8 -16 -8 -24 0 -29 12 -7 101 80 92 90 -3 3 1 8 10
12 9 3 13 12 10 20 -4 12 -8 12 -22 2 -14 -12 -15 -11 -2 5 11 13 17 15 28 6
11 -9 19 -7 38 11 14 13 25 28 25 33 0 5 12 18 26 29 14 11 23 27 20 34 -3 8
1 14 9 14 19 0 28 17 14 26 -8 5 -9 3 -4 -6 5 -9 4 -11 -3 -6 -9 5 -9 13 -2
26 22 42 4 40 -30 -3z"/>
<path d="M6300 880 l0 -40 105 0 105 0 2 -282 3 -283 43 -3 42 -3 0 285 0 286
105 0 105 0 0 40 0 40 -255 0 -255 0 0 -40z"/>
<path d="M7850 596 l0 -326 39 0 40 0 3 175 c3 173 3 175 29 201 32 31 107 44
143 24 40 -21 46 -51 46 -230 l0 -170 41 0 41 0 -4 188 c-4 217 -11 241 -81
273 -67 30 -145 21 -194 -24 l-22 -20 -3 114 -3 114 -37 3 -38 3 0 -325z"/>
<path d="M9460 595 l0 -325 35 0 c35 0 38 4 38 45 0 8 -1 148 -2 310 l-1 295
-35 0 -35 0 0 -325z"/>
<path d="M12290 596 l0 -326 40 0 39 0 3 130 3 131 128 4 c177 7 230 31 263
122 33 94 2 190 -76 233 -42 23 -56 25 -222 28 l-178 4 0 -326z m366 221 c21
-18 28 -35 32 -75 9 -102 -38 -132 -208 -132 l-110 0 0 115 0 115 129 0 c121
0 132 -2 157 -23z"/>
<path d="M14230 595 l0 -325 201 0 200 0 -3 38 -3 37 -152 3 -153 3 0 284 0
285 -45 0 -45 0 0 -325z"/>
<path d="M14660 880 l0 -40 105 0 105 0 0 -285 0 -285 40 0 40 0 0 285 0 284
108 3 107 3 0 35 0 35 -252 3 -253 2 0 -40z"/>
<path d="M15290 595 l0 -327 168 4 c149 3 172 6 214 27 94 45 148 155 148 300
0 142 -49 241 -144 290 -46 24 -62 26 -218 29 l-168 4 0 -327z m338 231 c74
-38 105 -107 106 -231 0 -79 -3 -98 -27 -147 -40 -82 -78 -98 -225 -98 l-112
0 0 245 0 245 115 0 c80 0 124 -4 143 -14z"/>
<path d="M13453 879 c-31 -20 -33 -24 -33 -80 0 -59 0 -59 -30 -59 -27 0 -30
-3 -30 -30 0 -27 3 -30 30 -30 l30 0 0 -179 c0 -155 2 -182 18 -200 18 -24 70
-38 115 -33 25 3 28 7 25 35 -3 27 -7 32 -33 35 -50 5 -55 21 -55 189 l0 153
40 0 c38 0 40 2 40 30 0 28 -2 30 -40 30 l-39 0 -3 80 -3 79 -32 -20z"/>
<path d="M816 826 c3 -9 13 -16 21 -16 8 0 12 -4 9 -9 -7 -11 32 -47 41 -38 3
4 0 7 -8 7 -12 0 -12 2 1 10 17 10 53 -16 44 -32 -3 -5 2 -16 12 -24 18 -14
17 -14 -4 -4 -14 7 -21 17 -18 25 3 8 1 17 -3 20 -5 3 -11 -2 -14 -10 -4 -9
12 -29 42 -54 49 -41 69 -51 55 -29 -4 7 -3 8 4 4 6 -4 9 -13 5 -21 -4 -11 -1
-13 13 -8 13 5 15 3 9 -7 -6 -10 -4 -12 9 -7 14 6 17 3 12 -8 -4 -13 -2 -14
14 -5 28 15 37 12 14 -5 -10 -8 -14 -15 -8 -15 5 0 15 5 22 12 9 9 12 9 12 1
0 -7 -5 -15 -11 -19 -15 -9 30 -44 47 -37 7 2 15 -1 20 -8 5 -8 3 -10 -7 -5
-8 4 1 -6 20 -23 27 -23 38 -28 48 -19 7 6 16 8 20 4 3 -3 1 -6 -5 -6 -22 0
-12 -18 20 -38 23 -15 36 -18 45 -11 8 7 18 7 32 0 14 -8 22 -8 27 1 4 7 3 8
-4 4 -7 -4 -12 -2 -12 4 0 6 -5 8 -10 5 -6 -3 -13 1 -16 9 -3 9 -10 13 -15 10
-5 -3 -9 0 -9 5 0 6 -5 11 -11 11 -5 0 -7 -4 -4 -10 3 -5 0 -7 -9 -4 -8 3 -13
11 -10 17 2 7 -6 19 -19 27 -45 29 -121 85 -159 118 -20 19 -42 31 -48 27 -6
-4 -9 -1 -8 7 2 7 -3 12 -9 11 -7 -2 -12 3 -10 10 1 6 -5 11 -14 11 -9 -1 -16
6 -15 15 1 9 -6 15 -16 15 -10 -1 -16 1 -15 5 1 4 -16 26 -38 49 -29 29 -45
38 -55 32 -9 -5 -19 -5 -27 2 -10 8 -12 7 -7 -6z"/>
<path d="M6945 738 c-83 -29 -132 -99 -142 -202 -15 -165 75 -276 224 -276 77
0 158 49 183 110 15 36 13 39 -32 46 -32 6 -36 3 -48 -25 -24 -58 -111 -82
-177 -48 -33 17 -73 86 -73 125 0 22 2 22 175 22 l175 0 0 28 c0 57 -31 136
-69 173 -53 54 -142 73 -216 47z m142 -74 c27 -17 48 -49 57 -86 l6 -28 -135
0 -136 0 7 23 c11 35 31 72 48 86 38 32 108 34 153 5z"/>
<path d="M7488 740 c-73 -22 -120 -73 -137 -150 -26 -112 -3 -217 58 -273 96
-87 244 -69 306 37 31 53 31 72 3 80 -39 10 -45 7 -60 -33 -36 -92 -158 -101
-214 -16 -19 28 -30 136 -20 189 22 116 175 152 222 52 15 -31 20 -34 48 -29
39 7 40 8 32 36 -21 84 -138 137 -238 107z"/>
<path d="M8533 735 c-17 -7 -41 -23 -52 -34 -12 -12 -22 -18 -23 -13 0 4 -2
12 -3 17 -2 6 -3 16 -4 23 0 6 -14 12 -31 12 l-30 0 0 -235 0 -235 34 0 34 0
4 163 c4 177 13 213 63 235 44 20 101 15 132 -12 l28 -24 3 -181 4 -181 34 0
34 0 0 190 c0 154 -3 197 -16 221 -29 58 -138 86 -211 54z"/>
<path d="M9048 740 c-130 -39 -186 -179 -136 -340 25 -78 86 -126 177 -137 88
-10 173 34 213 110 32 60 32 203 1 263 -49 92 -153 135 -255 104z m120 -70
c55 -25 82 -79 82 -165 0 -112 -52 -178 -142 -178 -97 0 -157 111 -129 238 13
57 49 100 97 115 41 12 44 12 92 -10z"/>
<path d="M9816 740 c-46 -14 -93 -52 -117 -95 -31 -54 -39 -187 -15 -250 55
-144 256 -180 360 -65 41 45 56 93 56 175 0 88 -16 134 -64 181 -57 58 -140
78 -220 54z m144 -79 c41 -29 60 -78 60 -156 0 -117 -45 -177 -135 -177 -89 0
-135 60 -135 175 0 73 15 121 48 150 43 39 113 42 162 8z"/>
<path d="M10330 734 c-70 -30 -104 -78 -121 -169 -13 -72 2 -157 39 -210 32
-46 101 -85 151 -85 39 0 121 36 121 53 0 5 3 7 7 3 11 -11 3 -98 -12 -126 -7
-14 -26 -32 -41 -40 -55 -30 -174 -6 -174 35 0 15 -38 35 -66 35 -20 0 -17
-39 6 -77 24 -39 66 -62 129 -70 109 -13 207 40 230 122 7 24 11 137 11 288
l0 247 -35 0 c-31 0 -35 -3 -35 -27 0 -24 -1 -25 -18 -10 -49 45 -130 58 -192
31z m148 -71 c67 -42 83 -206 28 -277 -72 -95 -202 -48 -222 80 -24 160 83
268 194 197z"/>
<path d="M11127 740 c-44 -13 -95 -57 -120 -103 -18 -34 -22 -58 -22 -132 0
-78 3 -96 25 -135 35 -61 92 -100 161 -107 98 -10 189 34 219 107 15 36 13 39
-31 46 -31 5 -36 2 -53 -29 -31 -58 -108 -77 -175 -42 -34 17 -70 81 -71 123
0 22 0 22 176 22 l177 0 -7 53 c-10 70 -36 127 -75 159 -51 43 -135 59 -204
38z m140 -76 c27 -17 48 -49 57 -86 l6 -28 -136 0 c-120 0 -135 2 -130 16 3 9
6 22 6 29 0 24 51 75 83 84 37 11 83 5 114 -15z"/>
<path d="M11615 736 c-69 -26 -102 -85 -84 -150 14 -52 50 -76 156 -108 111
-32 139 -53 129 -92 -9 -38 -50 -60 -107 -59 -58 1 -97 23 -113 65 -10 27 -14
29 -46 23 -19 -4 -37 -9 -39 -11 -2 -2 7 -25 20 -50 42 -81 152 -115 257 -80
88 30 133 116 98 185 -23 43 -51 59 -161 91 -107 31 -125 42 -125 76 0 57 125
81 175 34 14 -13 25 -30 25 -38 0 -11 8 -13 36 -9 20 3 39 8 41 11 12 11 -35
82 -65 99 -44 26 -145 32 -197 13z"/>
<path d="M10770 505 l0 -235 40 0 40 0 0 235 0 235 -40 0 -40 0 0 -235z"/>
<path d="M12871 732 c2 -5 42 -111 89 -236 l84 -226 37 0 c26 0 39 5 44 18 32
82 165 442 165 446 0 3 -17 6 -38 6 l-38 0 -64 -184 c-36 -101 -67 -182 -70
-179 -2 2 -32 84 -66 181 l-61 177 -43 3 c-23 2 -41 -1 -39 -6z"/>
<path d="M3909 313 c-1 -4 -1 -12 0 -17 1 -5 -6 -6 -15 -2 -9 3 -23 1 -31 -6
-8 -7 -21 -13 -28 -14 -13 -2 -76 -28 -107 -45 -10 -5 -24 -9 -32 -9 -8 0 -27
-5 -43 -11 -27 -10 -27 -11 -9 -25 23 -16 14 -19 -14 -4 -20 11 -120 -7 -120
-21 0 -4 -8 -8 -17 -8 -40 -1 -142 -24 -138 -32 3 -4 -5 -7 -17 -6 -39 3 -128
-15 -128 -26 0 -5 -12 -7 -27 -4 -16 2 -53 1 -83 -4 -30 -5 -80 -10 -110 -10
l-55 -1 45 -7 c25 -3 -52 -4 -170 -2 -118 3 -241 5 -272 5 -31 0 -55 2 -53 6
2 3 -22 6 -53 8 -53 2 -145 19 -234 43 -26 7 -44 6 -58 -1 -12 -6 -26 -9 -33
-6 -7 2 -4 5 6 5 9 1 17 5 17 10 0 5 -9 7 -20 4 -11 -3 -20 -1 -20 4 0 5 -6
10 -12 11 -35 4 -70 14 -148 42 -46 16 -92 30 -102 30 -10 0 -18 5 -18 11 0 5
-5 7 -11 3 -6 -3 -14 -2 -18 4 -4 7 -12 8 -21 2 -13 -9 -13 -10 0 -10 13 0 13
-1 0 -10 -8 -5 -11 -12 -7 -16 3 -4 13 -1 22 6 9 7 18 10 22 6 3 -3 1 -6 -6
-6 -9 0 -9 -3 1 -13 19 -19 51 -30 42 -14 -4 6 2 4 12 -5 22 -20 134 -61 142
-53 3 3 -1 5 -8 5 -7 0 -10 3 -7 7 4 3 15 -1 25 -10 10 -9 33 -18 52 -19 19
-2 38 -7 41 -12 4 -5 25 -9 47 -10 23 0 35 -4 29 -8 -7 -5 0 -8 18 -9 35 -2
51 -4 119 -19 28 -5 58 -8 68 -4 10 3 18 1 18 -5 0 -6 19 -8 45 -6 25 2 43 1
41 -3 -5 -8 -6 -8 215 -17 125 -5 179 -4 183 4 4 6 13 11 19 11 7 0 6 -4 -3
-11 -11 -8 0 -9 40 -5 30 3 92 8 138 12 45 4 82 11 82 16 0 6 10 8 23 5 25 -6
159 17 140 24 -7 2 6 4 30 4 23 0 51 5 62 10 11 5 27 10 35 11 34 6 46 10 58
17 6 5 18 5 25 1 9 -6 9 -4 -1 8 -10 13 -10 18 -1 24 7 4 9 3 6 -3 -9 -15 20
-25 41 -14 9 5 38 15 65 22 26 6 47 15 47 20 0 5 7 5 17 2 12 -5 14 -3 8 7 -6
10 -4 12 10 7 21 -9 48 10 38 27 -4 6 0 6 9 -2 16 -13 52 -6 42 9 -3 5 2 6 10
3 9 -3 36 6 62 20 26 14 54 26 63 26 14 1 14 2 -2 11 -9 6 -15 14 -12 19 3 5
1 11 -5 15 -5 3 -11 3 -11 -2z"/>
</g>
</svg>
